<svg xmlns="http://www.w3.org/2000/svg" width="512" height="512" viewBox="0 0 256 256" role="img" aria-label="female verification pose soft-smile-left">
<defs>
  <linearGradient id="g19" x1="36" y1="28" x2="220" y2="232" gradientUnits="userSpaceOnUse"><stop stop-color="#ef5e5e" stop-opacity=".22"/><stop offset=".52" stop-color="#d9a752" stop-opacity=".18"/><stop offset="1" stop-color="#8a6ef2" stop-opacity=".20"/></linearGradient>
  <filter id="s" x="-20%" y="-20%" width="140%" height="140%"><feDropShadow dx="0" dy="18" stdDeviation="18" flood-color="#05070d" flood-opacity=".35"/></filter>
</defs>
<g filter="url(#s)">
  <path d="M58 232 C68 192 92 171 128 171 C164 171 188 192 198 232 Z" fill="#d9a752" opacity=".95"/>
  <path d="M80 232 C88 200 106 185 128 185 C150 185 168 200 176 232" fill="#0d1122" opacity=".20"/>
  <g transform="rotate(-7 128 114)">
    <path d="M82 102 C82 62 101 38 130 38 C161 38 179 62 177 103 C175 144 154 166 128 166 C102 166 83 143 82 102Z" fill="#c88e7a" stroke="#382433" stroke-width="4"/>
    <path d="M78 89 C80 50 100 27 131 27 C162 27 184 52 181 91 C164 76 144 67 115 72 C100 75 89 81 78 89Z" fill="#32202d"/>
    <path d="M86 70 C99 40 129 31 160 46 C150 33 130 25 111 31 C93 36 82 52 78 89" fill="#5e3a4d" opacity=".75"/>
    <path d="M75 94 C64 132 72 168 99 190 C75 181 55 150 63 110 C66 96 70 88 78 78" fill="#32202d" opacity=".92"/>
    <path d="M179 91 C192 130 183 168 158 189 C182 178 201 145 193 108 C190 96 186 89 179 82" fill="#32202d" opacity=".92"/>
    <path d="M103 104 C109 100 116 100 122 104" stroke="#2d2130" stroke-width="4" stroke-linecap="round"/>
    <path d="M137 104 C143 100 150 100 156 104" stroke="#2d2130" stroke-width="4" stroke-linecap="round"/>
    <circle cx="113" cy="113" r="3" fill="#201722"/><circle cx="146" cy="113" r="3" fill="#201722"/>
    <path d="M128 116 C124 124 124 130 130 132" stroke="#7b4f50" stroke-width="3" stroke-linecap="round" fill="none"/>
    <path d="M103 128 C114 138 130 138 141 128" stroke="#4a2630" stroke-width="4" stroke-linecap="round" fill="none"/>
    <circle cx="96" cy="126" r="7" fill="#d9a752" opacity=".16"/><circle cx="160" cy="126" r="7" fill="#d9a752" opacity=".16"/>
  </g>
  
  <path d="M44 232 H212" stroke="#f6d79a" stroke-opacity=".35" stroke-width="3" stroke-linecap="round"/>
</g>
</svg>